# xmcd
# 
# Track frame offsets:
#     183
#     14495
#     28048
#     41645
#     55645
#     67608
#     81705
#     95470
#     107733
#     120383
#     134183
#     148158
#     160983
#     175440
#     191003
#     205490
#     219955
#     232638
#     243555
#     257013
# 
# Disc length: 3603
# 
# Revision: 4
# Processed by: cddbd v1.5.2PL0 Copyright (c) Steve Scherf et al.
# Submitted via: fre:ac v1.1beta1pre3
# 
DISCID=210e1114
DTITLE=John Lee Hooker - The Collection
DYEAR=0
DGENRE=Blues
TTITLE0=Boogie Chillen
TTITLE1=Crawlin' King Snake
TTITLE2=Drifting From Door To Door
TTITLE3=Cold Chills
TTITLE4=Let Your Daddy Ride
TTITLE5=I'm In The Mood
TTITLE6=Hobo Blues
TTITLE7=Burnin' Hell
TTITLE8=Huckle Up Baby
TTITLE9=Tease Me Baby
TTITLE10=Bad Boy
TTITLE11=Weeping Willow Boogie
TTITLE12=Sally Mae
TTITLE13=I Need Love So Bad
TTITLE14=Cool Little Car
TTITLE15=Grinder Man
TTITLE16=Sailing Blues
TTITLE17=Gotta Boogie
TTITLE18=Please Take Me Back
TTITLE19=Let's Talk It Over
EXTD=
EXTT0=
EXTT1=
EXTT2=
EXTT3=
EXTT4=
EXTT5=
EXTT6=
EXTT7=
EXTT8=
EXTT9=
EXTT10=
EXTT11=
EXTT12=
EXTT13=
EXTT14=
EXTT15=
EXTT16=
EXTT17=
EXTT18=
EXTT19=
PLAYORDER=
